<svg xmlns="http://www.w3.org/2000/svg" version="1.1" xmlns:xlink="http://www.w3.org/1999/xlink" width="1500" height="1500" viewBox="0 0 1500 1500"><rect width="1500" height="1500" x="0" y="0" id="background" stroke="transparent" fill="#f0f0f0"></rect><svg xml:space="preserve" width="1000" height="1000" data-version="2" data-id="lg_C0hy8iw7wIGz3sA9xZ" viewBox="0 0 565 93" x="250" y="250"><rect width="100%" height="100%" fill="transparent"></rect><path fill="#121212" d="M96.574 46.395a2.225 2.225 0 1 0-4.45 0 21.138 21.138 0 0 1-6.676 13.672 16.131 16.131 0 0 1-12.715 4.384 14.685 14.685 0 0 1-10.425-6.33q-.378-.534-.712-1.113a26.7 26.7 0 0 0 6.497-1.112 2.225 2.225 0 0 0 1.447-1.391 2.225 2.225 0 0 0-1.39-2.937 20.025 20.025 0 0 1-2.426-1.112 30.038 30.038 0 0 0 6.13-4.873 28.925 28.925 0 0 0 6.185-9.668 26.144 26.144 0 0 0 1.658-11.192 25.588 25.588 0 0 0-3.148-10.49 25.588 25.588 0 0 0-6.931-7.922A27.479 27.479 0 0 0 50.872.883a2.225 2.225 0 1 0 0 4.45 21.138 21.138 0 0 1 13.662 6.675 16.243 16.243 0 0 1 4.383 12.715 14.685 14.685 0 0 1-6.33 10.425q-.534.378-1.113.711a26.7 26.7 0 0 0-1.112-6.496 2.28 2.28 0 0 0-4.328-.056 22.25 22.25 0 0 1-1.112 2.425 30.038 30.038 0 0 0-4.873-6.13 28.925 28.925 0 0 0-9.668-6.185 26.144 26.144 0 0 0-11.192-1.658 25.588 25.588 0 0 0-10.49 3.148 25.588 25.588 0 0 0-7.921 6.931 27.479 27.479 0 0 0-5.43 18.757 2.225 2.225 0 0 0 2.014 2.025 2.225 2.225 0 0 0 1.636-.5 2.225 2.225 0 0 0 .8-1.525 21.138 21.138 0 0 1 6.676-13.672 16.131 16.131 0 0 1 12.715-4.384 14.685 14.685 0 0 1 10.425 6.33q.378.534.712 1.113a26.7 26.7 0 0 0-6.497 1.112 2.225 2.225 0 0 0-1.447 1.391 2.225 2.225 0 0 0 1.39 2.937 20.025 20.025 0 0 1 2.426 1.112 30.038 30.038 0 0 0-6.13 4.873 28.925 28.925 0 0 0-6.185 9.668 26.144 26.144 0 0 0-1.658 11.192 25.588 25.588 0 0 0 3.148 10.49 25.588 25.588 0 0 0 6.931 7.922 27.368 27.368 0 0 0 16.432 5.517q1.157.023 2.292-.088a2.225 2.225 0 1 0 0-4.45 21.138 21.138 0 0 1-13.64-6.676 16.243 16.243 0 0 1-4.383-12.715 14.685 14.685 0 0 1 6.33-10.424q.534-.379 1.113-.713a26.7 26.7 0 0 0 1.112 6.497 2.28 2.28 0 0 0 4.328 0 20.025 20.025 0 0 1 1.113-2.425 30.038 30.038 0 0 0 4.872 6.13 28.925 28.925 0 0 0 9.668 6.186 25.588 25.588 0 0 0 11.192 1.657 25.588 25.588 0 0 0 10.49-3.092 25.588 25.588 0 0 0 7.922-6.931 27.479 27.479 0 0 0 5.429-18.757m-7.176 17.433a23.919 23.919 0 0 1-7.287 6.341 23.363 23.363 0 0 1-9.59 2.881 23.363 23.363 0 0 1-10.235-1.501 26.7 26.7 0 0 1-8.9-5.719 27.813 27.813 0 0 1-5.395-7.253l-.88-1.658-1.034 1.558a21.138 21.138 0 0 0-2.292 4.45h-.11a23.363 23.363 0 0 1-1.024-7.532v-1.747l-1.602.712a17.8 17.8 0 0 0-3.026 1.703 16.799 16.799 0 0 0-7.265 11.992 18.468 18.468 0 0 0 4.94 14.463 23.363 23.363 0 0 0 15.163 7.365 25.143 25.143 0 0 1-17.233-4.951 23.363 23.363 0 0 1-9.222-16.877 23.363 23.363 0 0 1 1.501-10.235 26.7 26.7 0 0 1 5.719-8.9 27.813 27.813 0 0 1 7.253-5.395l1.658-.88-1.558-1.034a21.138 21.138 0 0 0-4.45-2.225v-.122a23.363 23.363 0 0 1 7.065-1.057h2.214l-.712-1.602a17.8 17.8 0 0 0-1.703-3.026 16.799 16.799 0 0 0-11.992-7.265 18.468 18.468 0 0 0-14.463 4.94 23.363 23.363 0 0 0-7.364 15.14 25.143 25.143 0 0 1 4.95-17.232 23.919 23.919 0 0 1 7.287-6.341 23.363 23.363 0 0 1 9.59-2.881 23.363 23.363 0 0 1 10.235 1.501 26.7 26.7 0 0 1 8.9 5.719 27.813 27.813 0 0 1 5.395 7.253l.88 1.658 1.034-1.558a21.138 21.138 0 0 0 2.292-4.45h.11a23.363 23.363 0 0 1 1.024 7.532v1.747l1.602-.712a17.8 17.8 0 0 0 3.026-1.702 16.799 16.799 0 0 0 7.265-11.993 18.468 18.468 0 0 0-4.94-14.463 23.363 23.363 0 0 0-15.163-7.364 25.143 25.143 0 0 1 17.233 4.95 23.363 23.363 0 0 1 9.222 16.877 23.363 23.363 0 0 1-1.502 10.235 26.7 26.7 0 0 1-5.718 8.9 27.813 27.813 0 0 1-7.253 5.395l-1.658.88 1.558 1.034a21.138 21.138 0 0 0 4.45 2.225v.122a23.363 23.363 0 0 1-7.599 1.057h-1.746l.712 1.602a17.8 17.8 0 0 0 1.702 3.026 16.799 16.799 0 0 0 11.992 7.265 18.468 18.468 0 0 0 14.463-4.94 23.363 23.363 0 0 0 7.432-15.152 25.143 25.143 0 0 1-4.951 17.244M27.465 16.702a13.573 13.573 0 0 1 9.834-2.37 10.013 10.013 0 0 1 4.061 1.57 7.788 7.788 0 0 1 2.559 2.78 6.675 6.675 0 0 0 1.724 1.992 6.675 6.675 0 0 0 3.972 1.346 6.542 6.542 0 0 0 4.005-11.715l-.634-.522a19.747 19.747 0 0 0-28.158 4.238 1.902 1.902 0 0 0 2.637 2.659Zm9.923-8.4a17.355 17.355 0 0 1 14.24 3.272l.635.49A4.317 4.317 0 0 1 47 18.893a4.45 4.45 0 0 1-1.112-1.324 10.458 10.458 0 0 0-3.237-3.516 12.238 12.238 0 0 0-4.94-1.924 14.463 14.463 0 0 0-2.325-.19 16.131 16.131 0 0 0-7.61 1.981 17.8 17.8 0 0 1 9.612-5.618m-17.02 47.782a8.233 8.233 0 0 1 2.78-2.548 6.542 6.542 0 0 0 .801-10.891 6.564 6.564 0 0 0-9.167 1.19l-.489.634a19.747 19.747 0 0 0 4.239 28.158 1.891 1.891 0 0 0 1.112.333 1.78 1.78 0 0 0 1.113-.322 1.891 1.891 0 0 0 .49-2.66 13.684 13.684 0 0 1-2.36-9.834 10.013 10.013 0 0 1 1.48-4.06m-1.847-1.246a12.238 12.238 0 0 0-1.924 4.94 15.575 15.575 0 0 0 1.802 9.923 17.8 17.8 0 0 1-5.63-9.634 17.355 17.355 0 0 1 3.272-14.24l.478-.635a4.339 4.339 0 0 1 3.427-1.68 4.317 4.317 0 0 1 3.415 6.943 4.45 4.45 0 0 1-1.324 1.112 10.458 10.458 0 0 0-3.516 3.27m55.937 21.45a13.573 13.573 0 0 1-9.834 2.37 10.013 10.013 0 0 1-4.061-1.57 8.233 8.233 0 0 1-2.559-2.78 6.564 6.564 0 0 0-10.891-.802 6.564 6.564 0 0 0 1.19 9.168l.634.489a20.025 20.025 0 0 0 7.921 3.671 18.913 18.913 0 0 0 4.083.423 20.025 20.025 0 0 0 4.05-.412 20.025 20.025 0 0 0 12.104-7.92 1.902 1.902 0 0 0-2.637-2.66Zm-9.923 8.4a17.355 17.355 0 0 1-14.24-3.272l-.635-.433a4.339 4.339 0 0 1-.778-6.041 4.339 4.339 0 0 1 6.04-.79 4.45 4.45 0 0 1 1.113 1.324 10.458 10.458 0 0 0 3.237 3.515 12.238 12.238 0 0 0 4.94 1.925 15.575 15.575 0 0 0 9.923-1.791 17.8 17.8 0 0 1-9.6 5.562m17.02-47.782a7.788 7.788 0 0 1-2.78 2.548 6.542 6.542 0 1 0 8.366 9.7l.489-.633a19.747 19.747 0 0 0-4.239-28.158 1.891 1.891 0 0 0-2.158 0 1.891 1.891 0 0 0-.49 2.66 13.684 13.684 0 0 1 2.36 9.834 10.013 10.013 0 0 1-1.547 4.05m1.847 1.245a12.238 12.238 0 0 0 1.924-4.94 15.575 15.575 0 0 0-1.802-9.923 17.8 17.8 0 0 1 5.63 9.635 17.355 17.355 0 0 1-3.272 14.24l-.478.634a4.339 4.339 0 0 1-6.052.778 4.305 4.305 0 0 1-.79-6.04 4.45 4.45 0 0 1 1.324-1.113 10.458 10.458 0 0 0 3.516-3.27M137.413 67.88q-5.43 0-10.15-2.08-4.72-2.08-8.31-5.8-3.58-3.72-5.59-8.57-2.01-4.86-2.01-10.42 0-5.5 1.97-10.35 1.98-4.86 5.56-8.55 3.59-3.68 8.31-5.79 4.73-2.11 10.22-2.11 4.82 0 8.78 1.41 3.95 1.4 7.63 4.48.61.47.71 1.11.1.64-.17 1.21t-.8.83q-.14.54-.67.81-.54.27-1.24.2-.71-.07-1.38-.6-2.61-2.28-5.69-3.39-3.08-1.1-7.17-1.1-4.36 0-8.14 1.74-3.79 1.74-6.67 4.76-2.88 3.01-4.52 6.96-1.64 3.96-1.64 8.38 0 4.55 1.64 8.51 1.64 3.95 4.52 6.97 2.88 3.01 6.67 4.72 3.78 1.71 8.14 1.71 3.68 0 6.97-1.21 3.28-1.2 6.23-3.48.8-.67 1.71-.54.9.14 1.57.81t.67 1.74q0 .53-.17.97-.16.43-.57.9-3.41 3.15-7.63 4.46t-8.78 1.31m32.36-23.25h-2.95q.2-4.16 2.18-7.44 1.98-3.28 5.16-5.16 3.18-1.88 7.07-1.88 3.08 0 4.75.88 1.68.87 1.28 2.54-.27 1.01-.91 1.34-.63.34-1.54.27-.9-.07-2.04-.13-3.75-.34-6.67.77-2.91 1.1-4.62 3.38t-1.71 5.43m-2.55 22.58q-1.2 0-1.87-.67-.67-.67-.67-1.88V33.1q0-1.2.67-1.87.67-.67 1.87-.67 1.21 0 1.88.67.67.67.67 1.87v31.56q0 1.21-.67 1.88-.67.67-1.88.67m34.44 15.94q-.53 0-1.2-.27-2.28-1-1.28-3.21l21.64-47.71q1.01-2.14 3.22-1.2 2.28.94 1.27 3.15l-21.7 47.7q-.67 1.54-1.95 1.54m7.44-17.08q-1.01.47-1.88.16-.87-.3-1.4-1.3l-14.94-30.96q-.47-1-.14-1.87.34-.87 1.34-1.34 1.01-.47 1.88-.17.87.3 1.34 1.31l14.67 30.95q.54 1.01.34 1.88-.21.87-1.21 1.34m25.59 16.81q-1.2 0-1.91-.7-.7-.7-.7-1.91V48.65q.07-5.23 2.51-9.42 2.45-4.18 6.64-6.6 4.18-2.41 9.41-2.41 5.36 0 9.58 2.45 4.22 2.44 6.67 6.66 2.44 4.22 2.44 9.58 0 5.3-2.38 9.52-2.37 4.22-6.46 6.66-4.09 2.45-9.25 2.45-4.49 0-8.14-1.91-3.65-1.91-5.86-5.06v19.7q0 1.21-.7 1.91-.71.7-1.85.7m15.95-20.03q3.89 0 6.97-1.81 3.08-1.81 4.85-4.99 1.78-3.18 1.78-7.14 0-4.02-1.78-7.16-1.77-3.15-4.85-5-3.08-1.84-6.97-1.84-3.82 0-6.9 1.84-3.08 1.85-4.83 5-1.74 3.14-1.74 7.16 0 3.96 1.74 7.14 1.75 3.18 4.83 4.99t6.9 1.81m44.55 4.36h-1.4q-3.55 0-6.33-1.68-2.78-1.67-4.39-4.59-1.61-2.91-1.61-6.67V21.51q0-1.14.7-1.87.71-.74 1.85-.74 1.13 0 1.87.74.74.73.74 1.87v32.76q0 3.42 2.01 5.6 2.01 2.18 5.16 2.18h1.81q1.07 0 1.74.73.67.74.67 1.88t-.81 1.84q-.8.71-2.01.71m-1-30.82h-17.09q-1 0-1.67-.64-.67-.64-.67-1.58 0-1 .67-1.64.67-.63 1.67-.63h17.09q1 0 1.67.63.67.64.67 1.64 0 .94-.67 1.58-.67.64-1.67.64m28.88 31.15q-5.36 0-9.58-2.41-4.23-2.41-6.64-6.63-2.41-4.23-2.41-9.59 0-5.42 2.41-9.64 2.41-4.22 6.64-6.64 4.22-2.41 9.58-2.41t9.54 2.41q4.19 2.42 6.6 6.64 2.42 4.22 2.48 9.64 0 5.36-2.44 9.59-2.45 4.22-6.64 6.63-4.18 2.41-9.54 2.41m0-4.69q3.88 0 6.96-1.81 3.09-1.81 4.83-4.96 1.74-3.15 1.74-7.17t-1.74-7.2q-1.74-3.18-4.83-4.99-3.08-1.81-6.96-1.81-3.89 0-6.97 1.81-3.08 1.81-4.86 4.99-1.77 3.18-1.77 7.2t1.77 7.17q1.78 3.15 4.86 4.96t6.97 1.81m31.29 20.03q-1.21 0-1.91-.7-.71-.7-.71-1.91V48.65q.07-5.23 2.51-9.42 2.45-4.18 6.64-6.6 4.19-2.41 9.41-2.41 5.36 0 9.58 2.45 4.22 2.44 6.67 6.66 2.44 4.22 2.44 9.58 0 5.3-2.37 9.52-2.38 4.22-6.47 6.66-4.09 2.45-9.25 2.45-4.48 0-8.14-1.91-3.65-1.91-5.86-5.06v19.7q0 1.21-.7 1.91-.71.7-1.84.7m15.94-20.03q3.89 0 6.97-1.81 3.08-1.81 4.86-4.99 1.77-3.18 1.77-7.14 0-4.02-1.77-7.16-1.78-3.15-4.86-5-3.08-1.84-6.97-1.84-3.82 0-6.9 1.84-3.08 1.85-4.82 5-1.75 3.14-1.75 7.16 0 3.96 1.75 7.14 1.74 3.18 4.82 4.99t6.9 1.81m45.49 4.69q-5.36 0-9.58-2.41t-6.63-6.63q-2.41-4.23-2.41-9.59 0-5.42 2.41-9.64 2.41-4.22 6.63-6.64 4.22-2.41 9.58-2.41t9.55 2.41q4.19 2.42 6.6 6.64 2.41 4.22 2.48 9.64 0 5.36-2.45 9.59-2.44 4.22-6.63 6.63-4.19 2.41-9.55 2.41m0-4.69q3.89 0 6.97-1.81 3.08-1.81 4.83-4.96 1.74-3.15 1.74-7.17t-1.74-7.2q-1.75-3.18-4.83-4.99t-6.97-1.81q-3.88 0-6.96 1.81-3.09 1.81-4.86 4.99-1.78 3.18-1.78 7.2t1.78 7.17q1.77 3.15 4.86 4.96 3.08 1.81 6.96 1.81m33.77-18.22h-2.95q.21-4.16 2.18-7.44 1.98-3.28 5.16-5.16 3.18-1.88 7.07-1.88 3.08 0 4.76.88 1.67.87 1.27 2.54-.27 1.01-.91 1.34-.63.34-1.54.27-.9-.07-2.04-.13-3.75-.34-6.67.77-2.91 1.1-4.62 3.38t-1.71 5.43m-2.54 22.58q-1.21 0-1.88-.67-.67-.67-.67-1.88V33.1q0-1.2.67-1.87.67-.67 1.88-.67 1.2 0 1.87.67.67.67.67 1.87v31.56q0 1.21-.67 1.88-.67.67-1.87.67m43.88 0h-1.41q-3.55 0-6.33-1.68-2.78-1.67-4.39-4.59-1.6-2.91-1.6-6.67V21.51q0-1.14.7-1.87.7-.74 1.84-.74 1.14 0 1.88.74.74.73.74 1.87v32.76q0 3.42 2.01 5.6 2.01 2.18 5.15 2.18h1.81q1.08 0 1.75.73.67.74.67 1.88t-.81 1.84q-.8.71-2.01.71m-1-30.82h-17.09q-1 0-1.67-.64-.67-.64-.67-1.58 0-1 .67-1.64.67-.63 1.67-.63h17.09q1 0 1.67.63.67.64.67 1.64 0 .94-.67 1.58-.67.64-1.67.64m28.34 31.15q-5.16 0-9.25-2.45-4.09-2.44-6.46-6.66-2.38-4.22-2.38-9.52 0-5.36 2.44-9.58 2.45-4.22 6.67-6.66 4.22-2.45 9.51-2.45 5.3 0 9.48 2.45 4.19 2.44 6.64 6.66 2.44 4.22 2.51 9.58l-2.08 1.61q0 4.83-2.24 8.68-2.25 3.85-6.1 6.1-3.85 2.24-8.74 2.24m.53-4.69q3.89 0 6.94-1.81 3.05-1.81 4.82-4.99 1.78-3.18 1.78-7.14 0-4.02-1.78-7.16-1.77-3.15-4.82-5-3.05-1.84-6.94-1.84-3.82 0-6.9 1.84-3.08 1.85-4.89 5-1.81 3.14-1.81 7.16 0 3.96 1.81 7.14 1.81 3.18 4.89 4.99 3.08 1.81 6.9 1.81m16.02 4.36q-1.14 0-1.88-.71-.74-.7-.74-1.84V53.2l1.28-5.29 3.95 1v15.75q0 1.14-.74 1.84-.73.71-1.87.71m21.44 0h-.87q-2.68 0-4.8-1.48-2.11-1.47-3.28-4.09-1.17-2.61-1.17-6.03V17.42q0-1.13.7-1.84.71-.7 1.85-.7 1.13 0 1.84.7.7.71.7 1.84v38.19q0 2.89 1.17 4.69 1.18 1.81 2.99 1.81h1.67q1.01 0 1.61.71.6.7.6 1.84 0 1.14-.84 1.84-.83.71-2.17.71"></path></svg></svg>